# xmcd CD database file
#
# Track frame offsets:
#	150
#	12831
#	27321
#	42596
#	58105
#	88658
#	117397
#	133710
#	149700
#	165183
#	179721
#	213905
#	245404
#	277392
#	311780
#	326546
#
# Disc length: 4548 seconds
#
# Revision: 0
# Processed by: cddbd v1.5.1PL2 Copyright (c) Steve Scherf et al.
# Submitted via: CDex 1.51
#
DISCID=f711c210
DTITLE=Eric Silk - Blues Down South
DYEAR=1900
DGENRE=Jazz
TTITLE0=Chasing The Ace
TTITLE1=Blues My Naughty Sweetie Gives Me
TTITLE2=Tiger Rag
TTITLE3=Some of These Days
TTITLE4=1919 Rag
TTITLE5=Blues Down South
TTITLE6=Milenburg Joys
TTITLE7=Creole Belles
TTITLE8=Sensation Rag
TTITLE9=The Onions
TTITLE10=London Blues
TTITLE11=I Want A Girl
TTITLE12=Hiawatha
TTITLE13=Maryland My Maryland
TTITLE14=Just A Little While
TTITLE15=The World Is Waiting For The Sunrise
EXTD=
EXTT0=
EXTT1=
EXTT2=
EXTT3=
EXTT4=
EXTT5=
EXTT6=
EXTT7=
EXTT8=
EXTT9=
EXTT10=
EXTT11=
EXTT12=
EXTT13=
EXTT14=
EXTT15=
PLAYORDER=
